# xmcd
#
# Track frame offsets:
# 150
# 15305
# 37370
# 59092
# 77742
# 97670
# 114960
# 131717
# 147855
# 166422
# 188152
# 204925
# 224512
# 241675
#
# Disc length: 3431 seconds
#
#
# Revision: 1
# Processed by: cddbd v1.5.1PL0 Copyright (c) Steve Scherf et al.
# Submitted via: FreeRIP 2.40 
#
DISCID=bd0d650e
DTITLE=Chitãozinho and Xororó - No Coração - Nascemos para Cantar - No coração
DYEAR=2005
DGENRE=Sertanejo
TTITLE0=Alô
TTITLE1=Evidências
TTITLE2=Um Homem Quando Ama
TTITLE3=Nuvem de Lágrimas
TTITLE4=Página Virada
TTITLE5=Eu Menti
TTITLE6=Deixa (Deja)
TTITLE7=Página de Amigos
TTITLE8=Foge de Mim
TTITLE9=Somos Assim
TTITLE10=Feito Eu
TTITLE11=Falando às Paredes
TTITLE12=Vez em Quando Vem Me Ver
TTITLE13=Fio de Cabelo (ao vivo)
EXTD=by Tosh2005
EXTT0=
EXTT1=
EXTT2=
EXTT3=
EXTT4=
EXTT5=
EXTT6=
EXTT7=
EXTT8=
EXTT9=
EXTT10=
EXTT11=
EXTT12=
EXTT13=
PLAYORDER=
